<svg xmlns="http://www.w3.org/2000/svg" viewBox="0 0 5000 3125"><style><![CDATA[.AE{fill:#cba284}.AF{fill:#e0d6cf}.AG{fill:#81a6e9}.AH{fill:#464e94}.AI{fill:#8e7662}.AJ{fill:#323349}]]></style><linearGradient id="A" gradientUnits="userSpaceOnUse" x1="1784.903" y1="910.544" x2="2319.538" y2="910.544"><stop offset="0" stop-color="#3a619e"/><stop offset="1" stop-color="#8ac1e7"/></linearGradient><path d="M2275.4 852.7c-5.4-21-13.8-40.8-24.5-59.1l24.9-37.5-69.2-69.2-37.5 24.9c-18.2-10.8-38.1-19.1-59.1-24.5l-8.9-44.1h-97.8l-8.9 44.1c-21 5.4-40.8 13.8-59.1 24.5l-37.5-24.9-69.2 69.2 24.9 37.5c-10.8 18.2-19.1 38.1-24.5 59.1l-44.1 8.9v97.8l44.1 8.9c5.4 21 13.8 40.8 24.5 59.1l-24.9 37.5 69.2 69.2 37.5-24.9c18.2 10.8 38.1 19.1 59.1 24.5l8.9 44.1h97.8l8.9-44.1c21-5.4 40.8-13.8 59.1-24.5l37.5 24.9 69.2-69.2-24.9-37.5c10.8-18.2 19.1-38.1 24.5-59.1l44.1-8.9v-97.8l-44.1-8.9zM2052.2 1082c-94.7 0-171.5-76.8-171.5-171.5S1957.5 739 2052.2 739s171.5 76.8 171.5 171.5c0 94.8-76.8 171.5-171.5 171.5z" fill="url(#A)"/><linearGradient id="B" gradientUnits="userSpaceOnUse" x1="1576.047" y1="564.413" x2="1920.023" y2="564.413"><stop offset="0" stop-color="#3a619e"/><stop offset="1" stop-color="#8ac1e7"/></linearGradient><path d="M1891.6 527.2c-3.5-13.5-8.8-26.3-15.8-38l16.1-24.1-44.6-44.6-24.1 16c-11.7-6.9-24.5-12.3-38-15.8l-5.7-28.4h-63l-5.7 28.4c-13.5 3.5-26.3 8.8-38 15.8l-24.1-16-44.6 44.6 16 24.1c-6.9 11.7-12.3 24.5-15.8 38l-28.4 5.7v63l28.4 5.7c3.5 13.5 8.8 26.3 15.8 38l-16 24.1 44.6 44.6 24.1-16.1c11.7 6.9 24.5 12.3 38 15.8l5.7 28.4h63l5.7-28.4c13.5-3.5 26.3-8.8 38-15.8l24.1 16.1 44.6-44.6-16.1-24.1c6.9-11.7 12.3-24.5 15.8-38l28.4-5.7v-63l-28.4-5.7zM1748 674.7c-60.9 0-110.3-49.4-110.3-110.3s49.4-110.3 110.3-110.3 110.3 49.4 110.3 110.3c.1 61-49.3 110.3-110.3 110.3z" fill="url(#B)"/><linearGradient id="C" gradientUnits="userSpaceOnUse" x1="1875.06" y1="387.551" x2="3654.226" y2="3560.88"><stop offset="0" stop-color="#3a619e"/><stop offset="1" stop-color="#8ac1e7"/></linearGradient><path d="M2083.2 2634.2h1124.2c54 0 97.7-43.7 97.7-97.7V986c0-54-43.7-97.7-97.7-97.7H2083.1c-54 0-97.7 43.7-97.7 97.7v1550.5c.1 53.9 43.8 97.7 97.8 97.7z" fill="url(#C)"/><linearGradient id="D" gradientUnits="userSpaceOnUse" x1="2280.427" y1="532.794" x2="2422.061" y2="532.794"><stop offset="0" stop-color="#3a619e"/><stop offset="1" stop-color="#8ac1e7"/></linearGradient><path d="M2422.1 532.8l-57-32.9v21.7h-84.7V544h84.7v21.7z" fill="url(#D)"/><linearGradient id="E" gradientUnits="userSpaceOnUse" x1="2280.427" y1="460.66" x2="2422.061" y2="460.66"><stop offset="0" stop-color="#3a619e"/><stop offset="1" stop-color="#8ac1e7"/></linearGradient><path d="M2280.4 460.7l57 32.8v-21.6h84.7v-22.4h-84.7v-21.7z" fill="url(#E)"/><linearGradient id="F" gradientUnits="userSpaceOnUse" x1="3187.556" y1="441.928" x2="3315.3" y2="441.928"><stop offset="0" stop-color="#3a619e"/><stop offset="1" stop-color="#8ac1e7"/></linearGradient><path d="M3247.4 530.1c-6.9-.5-13.4-3.1-18.4-7.4-5.7-4.9-8.7-11.3-8.7-18.2-1-13.5-5.2-27.5-8.7-37.1-16.6-13.2-25.5-33.6-23.9-54.8 2.7-35.1 33.4-61.5 68.5-58.9 35.1 2.7 61.5 33.4 58.9 68.5-1.4 19.1-11.2 36.3-26.9 47.4-4.8 13-7.6 24.8-8.5 35.3-.2 14.1-13.5 25.4-29.9 25.3-.8 0-1.6 0-2.4-.1zm8.5-171.1c-32.2-2.4-60.5 21.8-62.9 54-1.5 19.6 6.9 38.6 22.5 50.7l.6.5.3.7c3.6 9.9 8.2 24.8 9.2 39.4v.2c0 5.4 2.4 10.4 6.9 14.3 4.6 4 10.8 6.2 17.4 6.2 13.5.1 24.5-9 24.6-20.2v-.2c.9-11.2 4-23.8 9.1-37.5l.3-.8.7-.5c14.8-10.1 24-26.1 25.4-43.9 2.4-32.2-21.9-60.5-54.1-62.9z" fill="url(#F)"/><linearGradient id="G" gradientUnits="userSpaceOnUse" x1="3227.191" y1="473.514" x2="3272.044" y2="473.514"><stop offset="0" stop-color="#3a619e"/><stop offset="1" stop-color="#8ac1e7"/></linearGradient><path d="M3235.6 508.4l-8.4-69.6 14.5 12 9-10 7.8 9.3 13.5-11.4-8.2 69.7-5.2-.6 6.7-56.6-7.5 6.3-7.3-8.7-8.3 9.2-8.3-6.9 6.8 56.6z" fill="url(#G)"/><linearGradient id="H" gradientUnits="userSpaceOnUse" x1="3227.046" y1="533.002" x2="3272.471" y2="533.002"><stop offset="0" stop-color="#3a619e"/><stop offset="1" stop-color="#8ac1e7"/></linearGradient><path d="M3272.3 542.3l-45.3-.3.2-18.3 45.3.3z" fill="url(#H)"/><linearGradient id="I" gradientUnits="userSpaceOnUse" x1="3219.81" y1="519.92" x2="3279.88" y2="519.92"><stop offset="0" stop-color="#3a619e"/><stop offset="1" stop-color="#8ac1e7"/></linearGradient><path d="M3279.7 534.8l-59.9-.4.2-29.4 59.9.4z" fill="url(#I)"/><linearGradient id="J" gradientUnits="userSpaceOnUse" x1="2765.939" y1="318.921" x2="2875.698" y2="318.921"><stop offset="0" stop-color="#3a619e"/><stop offset="1" stop-color="#8ac1e7"/></linearGradient><path d="M2862.6 303.2c-.5-1.3-1.3-2.9-2.5-4.8-1.2-1.8-2.7-3.7-4.5-5.7s-3.8-3.9-6.2-5.7c-2.3-1.9-4.9-3.5-7.6-4.9L2829 312l2.5 1.8c4.7 3.5 8.8 6.9 12.3 10.3 3.5 3.3 6.3 6.7 8.2 10.2s3 7.1 3.2 11-.7 8.2-2.7 12.8c-2.2 5.1-5 9.1-8.4 11.9s-7.2 4.7-11.5 5.8c-4.3 1-8.8 1.2-13.6.6s-9.7-2-14.6-4l-6.5 15.2-7.5-3.2 6.7-15.4c-6.7-3.5-12.7-7.7-18-12.6-5.3-5-9.7-10.6-13.1-16.9l13.3-10.7c.6 1.6 1.6 3.5 3 5.7s3.2 4.5 5.4 6.9 4.6 4.8 7.5 7.1c2.8 2.3 5.9 4.5 9.2 6.3l12.9-29.9c-.5-.4-1-.9-1.6-1.3s-1.1-.8-1.6-1.3c-4.5-3.5-8.4-6.9-11.5-10-3.2-3.1-5.5-6.3-7.1-9.5s-2.4-6.5-2.5-9.9.8-7.1 2.5-11.2c2-4.7 4.7-8.6 7.9-11.5 3.2-3 6.9-5.1 11-6.5s8.5-1.9 13.1-1.7 9.4 1.2 14.4 2.9l6.3-14.6 7.5 3.2-6.3 14.6c6.1 3.1 11.3 6.8 15.7 11.2s8 9 10.7 13.7l-13.2 10.2zm-49.3-16.8c-1.7 4-1.6 7.7.3 10.9 2 3.2 5.5 6.9 10.6 10.9l12.2-28.5c-6-2.2-10.9-2.7-14.8-1.5-3.7 1.4-6.5 4.1-8.3 8.2zm21.1 66c1.8-4.2 1.5-8.2-.9-11.8s-6.3-7.6-11.6-11.9l-12.3 28.6c6.2 2.6 11.4 3.4 15.7 2.7 4.3-.9 7.3-3.4 9.1-7.6z" fill="url(#J)"/><linearGradient id="K" gradientUnits="userSpaceOnUse" x1="2791.853" y1="225.614" x2="2791.853" y2="850.385"><stop offset="0" stop-color="#e0e6ec"/><stop offset="1" stop-color="#faf7f3"/></linearGradient><path d="M3516.2 642.3C3228.4 660.9 3223 988 3223 988v1558.1H2067.5V988s-1.3-326.1 294.7-345.8h1154z" fill="url(#K)"/><path d="M2219.2 1049.3h793.6v70h-793.6zm0 161.9h677.7v49.6h-677.7zm0 131h340.6v73.7h-340.6zm441.4 0h352.3v73.7h-352.3zm-441.4 141.9h542.7v52.5h-542.7zm0 131.2h611.5v29.2h-611.5zm0 131.4h735.3v29.2h-735.3zm343 294.1h-345.3v-165.1h345.3v165.1zm-340.6-4.7h336v-155.8h-336v155.8zm423.6-158.1h309.3v37.9h-309.3zm0 80.2h219.2v37.9h-219.2zm-426 182.3h606v29.2h-606zm0 131.4h348.3v29.2h-348.3z" fill="#e0e6ec"/><linearGradient id="L" gradientUnits="userSpaceOnUse" x1="2887.554" y1="2240.091" x2="3105.285" y2="2240.091"><stop offset="0" stop-color="#d39b5e"/><stop offset="1" stop-color="#e7ce67"/></linearGradient><path d="M3105.3 2349h-217.7v-217.7h217.7V2349zm-197.3-20.5h176.9v-176.9H2908v176.9z" fill="url(#L)"/><linearGradient id="M" gradientUnits="userSpaceOnUse" x1="3116.335" y1="2275.112" x2="2818.536" y2="1967.094"><stop offset="0" stop-color="#d39b5e"/><stop offset="1" stop-color="#e7ce67"/></linearGradient><path d="M2999.8 2285.7l-76.5-72.2 23.3-24.8 54.8 51.7 119.7-98.4 21.6 26.3z" fill="url(#M)"/><path d="M2230.8 2302.3s4.7 4.5 6.4 8.7c1.3 3.3 5.6 7.8 7.7 10.3 2 2.5 9.7 14.4 10.8 17.6.4 1.3-.1 10.6 1.1 13.3 1.2 2.6 4.3 7.7 2 8.6-2.4.9-6.4-2.8-6.4-2.8s.9 2.5-.9 3.9c-3.5 2.8-6.1 1.7-6.1 1.7s-.7 3.1-2.5 3.9c-3.9 1.8-6.4.6-6.4.6s-1.4 2-4.2 2.6c-3.7.8-6.1-2-6.1-2s-4.4 2-6.3.2c-2-1.8-2.4-4.2-3.5-6s-5.7-19.6-3.3-33.7c2.4-14.2-8.7-24.8-8.7-24.8l26.4-2.1z" class="AE"/><path d="M2269.8 2411.1h-61.1a11.29 11.29 0 0 1-11.3-11.3v-38.5a11.29 11.29 0 0 1 11.3-11.3h61.1a11.29 11.29 0 0 1 11.3 11.3v38.5a11.29 11.29 0 0 1-11.3 11.3zm-61.1-53.5a3.76 3.76 0 0 0-3.7 3.7v38.5a3.76 3.76 0 0 0 3.7 3.7h61.1a3.76 3.76 0 0 0 3.7-3.7v-38.5a3.76 3.76 0 0 0-3.7-3.7h-61.1z" fill="#222832"/><path d="M2124.6 2394.6h229.3v164.3h-229.3z" fill="#5b5c5a"/><path d="M2141.9 1955s-11.7.2-16.8 35.3c-5 35.1 4.5 49.8 5.6 64.4s18.3 109 18.7 113.2c.5 4.2 2.8 54.4 9.4 67.7 6.7 13.3 55.8 88.9 56.5 92.7s23.9-13.2 23.9-13.2-38.6-80.8-40.8-90-17.8-56.3-15.3-70.7-6.9-93.7-6-102.5c1-8.8-12.7-91.5-35.2-96.9z" class="AE"/><path d="M2141.9 1955s-11.7.2-16.8 35.3c-5 35.1-.5 47.8 2.6 63 2.9 14.4 12.6 102.3 13.1 106.5s12.1 57.2 18.2 75.8c4.6 14.2 48.4 88.4 49.1 92.2s34.1-17.3 34.1-17.3-42.8-83.6-45.1-92.8c-2.2-9.2-9.5-41.1-9.7-55.7-.3-17.1-11-101.2-10.1-110 .8-8.9-2.6-85-35.4-97z" class="AH"/><path d="M2043.7 2774s20.5 30.4 28.7 37.7c0 0 19 6.6 20.1 19.5.8 8.4 0 22-21.6 22.6-21.7.6-35.6-7-39.5-20.1-4-13.1-11.5-19-11.5-19v27.5h-4.9l-1.5-31.4c-.3-4.9-3.5-23.7 6.8-32 10.2-8.3 23.4-4.8 23.4-4.8zm138.7-24.3s3.5 8.4 10.2 17.1c4.9 6.4 20.1 32.7 26.9 34.5 6.7 1.8 27.5 5.5 29.3 17.1s2.7 19.8-17.7 20.8c-20.5.9-33.9 2.1-43.6-12.2s-25.3-24.7-25.3-24.7v37.4h-7.9s-3.7-39-5.8-41.7-7.6-32.7 11.3-48.2c18.8-15.6 22.6-.1 22.6-.1z" class="AF"/><g class="AE"><path d="M2029.9 2187.8s-25.8 33.6-32.8 73.4 4.1 173.5 3.8 193.2-18.6 68.7-15 105.8c3.7 37.1 34.3 218.6 34.3 218.6l23.4-4.8v-203.7c2.3-15.6 6.9-72.3 7.8-78.7s58.1-174.7 58.1-203.4c.1-28.8-17.3-147.3-79.6-100.4z"/><path d="M2159.6 2200.9l47.5 184.4c5 22.4 12.3 40.9 12.3 50.5 0 22.1-8.2 57.6-8.2 57.6l-28.8 256.4h-22.7l-16.6-179.9c-2.3-30.2 16.5-76.9 11.9-89.7s-73.7-160.7-73.7-160.7-52.4-165.6 78.3-118.6zm-83.7 612.3s-17.8 9.2-34-2.9-21.6-31.5-21.6-31.5l23.4-4.8 32.2 39.2z"/><path d="M2219.5 2801.3s-18.3 4.6-25.3 0-30.9-44.9-38.8-47.3c0 0 7.7-15.5 27-4.2 0-.1 31.9 44.8 37.1 51.5z"/></g><path d="M2213.9 2411.1s-78 45.9-224.1 45.9c0 0-8.3-169.5 13-217.2 21.2-47.7 162.3-18 162.3-18s43.8 154.2 48.8 189.3z" fill="#353f54"/><path d="M2107.4 1942.4s22.7 10.7 30.5 12.3c7.9 1.6 38.4 41.2 43.7 55.7 5.4 14.5 0 36.2-11 61.7s-.6 34-5.7 59.5c-5 25.5-9.4 79.5-8.5 93.6.9 14.2-127.3 16.8-156.6-9l33.2-50.3c3.8-6.3.6-40.6-2.8-49.4-3.5-8.8-26.5-83.7-26.5-83.7s-18.8-57.5-1.8-70.8c14.8-11.5 55.1-15.6 62.3-18.1 7.4-2.7 28.5-3.7 43.2-1.5z" class="AF"/><path d="M2114.7 1992.9l13.8-16.1-12-42.4c0-.1-4 23.5-1.8 58.5z" fill="#c9c1ba"/><path d="M2078.8 1781.5c13.5-4.7 62.9-16.4 74.6 46.9 11.6 63.3-23.3 108.3-55.4 96.3s-51.9-55.7-53.8-89.1c-1.9-33.3 17.7-48.1 34.6-54.1z" class="AE"/><g fill="#31353f"><path d="M2153.4 1828.4s2.4-54.1-51.4-56-68.3 42.4-63.9 74.7 26.7 49.3 26.7 49.3-1.9-26.1 8.5-32.9 52.3-20.3 70.5-51.8c.1.1 8.6 10 9.6 16.7z"/><path d="M2086.3 1822.7c-7.1 21.6-28.1 34-47 27.8-18.8-6.2-28.4-28.7-21.3-50.3s28.1-34 47-27.8c18.9 6.3 28.4 28.7 21.3 50.3z"/></g><g class="AE"><path d="M2118.3 1916.2s-4.5 41.6-3.6 55.1c0 0-23.5 23.6-50.3-27.5 0 0 11.3-21.1 2.8-49.8s51.1 22.2 51.1 22.2z"/><path d="M2114.7 1971.3v21.6l-27.1-20.3z"/></g><path d="M2114.7 1992.9l-11.3-14-37.9-37.7-12.2 11.8z" fill="#c9c1ba"/><path d="M2060.3 1944.8s31.8 48.3 33.3 69.5-11.8 180.1-22.5 231.2-87.9-5.8-87.9-5.8 51.9-83.9 32-151.2l-27.1-94.1s6.8-37.4 31.1-42.7c21.3-4.5 41.1-6.9 41.1-6.9zm123.5 72s5.7 20.3-16.6 65.2l1 75.4c.6 17.9 4.9 85.8 4.9 85.8l-22.1 13c-4.4 2.6-10-1-9.3-6.1 6.3-51.6 26.6-247.4-17.4-300.1l17.6 5.2c0-.2 31.4 25.5 41.9 61.6z" class="AH"/><path d="M2078.8 1852.1c-2-5-8.5-6.4-12.3-3.5-3.8 2.8-6 11.3 0 22.3s27 18.7 12.3-18.8z" class="AE"/><path d="M2128.5 1976.7l17.3 4.8-29.3-47.2zm-25.1 2.2l-15.8 20.8-32.6-54.2 10.5-4.3z" fill="#ede2da"/><path d="M2117.3 1925.4l-.8 8.3s-18.7 3.5-43.2-26.4c0 0 17.4 21.2 44 18.1z" class="AI"/><g class="AE"><path d="M2213.6 2179.8s11 7.1 17.3 3.1c5.4-3.4 14.8-3.8 17.7-4 3.9-.2 15.5-5.2 15.8-.4.3 4.9-18.8 9.2-22.6 10.9s13 9.9 14.9 13.9c1.9 3.9-13.3 31-24.2 24s-17.9-21.6-20.1-22.5c-2.2-.8-8.1-4.8-8.1-4.8l9.3-20.2z"/><path d="M2004.6 1959.4s15.3-3.8 28.5 10.4 19.8 37.4 23.3 45 47.2 77.4 49.7 79 47 37.4 67.1 56.6 59.4 40.6 59.4 40.6l-14.8 20.8s-119.3-63.6-134.4-86.9-75.4-87.8-75.4-87.8-36-54.3-3.4-77.7zm250 241.8s31.9 23.6 32.8 26.9c.8 3.3-.6 5-3.6 2.9l-31.5-21.9s33.1 34.3 34.4 36.9c.7 1.5-1.7 4.9-3.5 3.9s-36.5-33-36.5-33 30.9 32 31.3 34.5c.4 2.2-2.7 4.7-5.1 2.5-2.5-2.2-32.8-30.3-32.8-30.3s21 24.7 20.1 27c-.5 1.4-2.6 4.4-7.8-2.1-5.2-6.6-19.2-20.7-19.2-20.7l21.4-26.6z"/></g><path d="M2172.5 2070.7s1.1 71.7-3.3 106.3l-1.9-95 5.2-11.3z" fill="#353b6a"/><path d="M2012.5 1954.1s8.7 1.5 21.9 15.6c13.2 14.2 19.8 37.4 23.3 45s47.2 77.4 49.7 79 38.9 26.6 59.1 45.8c20.1 19.2 57.6 42.1 57.6 42.1l-19.2 28.6s-105.2-58.3-121.9-80.4c-17.8-23.7-81.4-93.3-81.4-93.3s-41.1-63.4 10.9-82.4z" class="AH"/><path d="M2252.4 2356.3s-4.1-16-9.2-18.3c-5.1-2.4-4 3.5-4 3.5s-1-5.8-5.8-5.5-3 7.1-3 7.1-2-4.2-6.5-2.1c-4.5 2-1.8 7.3-1.8 7.3s-6.1-4.4-7.6 1.6c-2.5 10 5 19.5 5 19.5s2.3 2.1 6.6-.1c0 0 4.9 5.4 10.5-.6 0 0 8.1 2.2 8.9-4.6-.1-.2 9.3 1.3 6.9-7.8z" fill="#bb987d"/><path d="M2084.2 2146.5l-36-58.1 33.9 40.1 3.5 4.2s-.9 11.9-1.4 13.8z" fill="#353b6a"/><linearGradient id="N" gradientUnits="userSpaceOnUse" x1="2797.606" y1="1559.735" x2="3127.585" y2="1559.735"><stop offset="0" stop-color="#3a619e"/><stop offset="1" stop-color="#8ac1e7"/></linearGradient><path d="M3127.6 1409.8h-330v299.9l50.4-52.2h279.6z" fill="url(#N)"/><linearGradient id="O" gradientUnits="userSpaceOnUse" x1="1618.623" y1="1580.645" x2="1948.602" y2="1580.645"><stop offset="0" stop-color="#3a619e"/><stop offset="1" stop-color="#8ac1e7"/></linearGradient><path d="M1618.6 1430.7h330v299.9l-50.4-52.2h-279.6z" fill="url(#O)"/><g fill="#fff"><path d="M2958.7 1615.5c-6.7-.5-13-3-17.9-7.2-5.5-4.7-8.5-11-8.5-17.7-.9-13.2-5-26.8-8.4-36.1-16.1-12.9-24.8-32.7-23.2-53.2 2.6-34.1 32.5-59.8 66.6-57.2s59.8 32.5 57.2 66.6c-1.4 18.6-10.9 35.3-26.2 46.1-4.6 12.6-7.4 24.1-8.3 34.3-.2 13.7-13.2 24.7-29 24.6-.8-.1-1.5-.1-2.3-.2zm8.2-166.3c-31.3-2.4-58.8 21.2-61.1 52.5-1.4 19.1 6.7 37.5 21.9 49.3l.6.4.2.7c3.5 9.7 8 24.1 9 38.2v.2c0 5.2 2.4 10.1 6.7 13.9 4.5 3.9 10.5 6 16.9 6.1 13.1.1 23.8-8.7 23.9-19.6v-.2c.9-10.8 3.9-23.1 8.9-36.5l.3-.8.7-.5c14.3-9.8 23.3-25.4 24.6-42.7 2.3-31.2-21.3-58.7-52.6-61zm-19.7 145.1l-8.2-67.6 14.1 11.6 8.8-9.7 7.6 9.1 13.1-11.1-8 67.7-5-.6 6.5-54.9-7.3 6.1-7.1-8.5-8 9-8.1-6.7 6.6 55z"/><path d="M2939.126 1609.29l44 .294-.118 17.7-44-.294z"/><path d="M2932.164 1591.14l58.2.393-.193 28.6-58.2-.393zM1824.3 1520.7c-1.2-1.4-3-2.8-5.4-4.4s-5.1-3.1-8.3-4.5c-3.1-1.4-6.6-2.7-10.3-3.7-3.8-1-7.6-1.7-11.6-2l-.1 42.4 3.9.8c7.4 1.8 14 3.8 19.9 6s10.9 4.9 15 8c4.1 3.2 7.2 7 9.5 11.6 2.2 4.6 3.3 10.1 3.3 16.7 0 7.2-1.3 13.4-4 18.5-2.6 5.1-6.2 9.4-10.8 12.8s-9.9 5.9-16 7.6-12.6 2.6-19.6 2.7l-.1 21.5h-10.6l.1-21.9c-9.8-.7-19.2-2.7-28-5.9-8.9-3.2-17-7.7-24.3-13.5l10.5-19.6c1.5 1.6 3.7 3.4 6.5 5.3 2.9 1.9 6.2 3.8 10 5.6s8 3.4 12.6 4.7c4.6 1.4 9.3 2.4 14.2 2.9l.1-42.4c-.8-.3-1.7-.5-2.6-.7s-1.7-.4-2.6-.7c-7.2-1.9-13.5-4-18.9-6.1s-9.8-4.7-13.4-7.7c-3.5-3-6.2-6.5-8.1-10.6-1.8-4-2.7-8.9-2.7-14.6 0-6.7 1.2-12.6 3.5-17.8s5.6-9.6 9.9-13.4c4.2-3.7 9.2-6.7 14.9-8.8s11.9-3.4 18.7-3.9l.1-20.7h10.6l-.1 20.7c8.9.6 17.1 2.4 24.5 5.4 7.5 3 14.1 6.7 19.8 10.9l-10.1 18.8zm-67.6 5.1c0 5.7 2 10 6 12.9s10.1 5.4 18.3 7.6l.1-40.3c-8.3.4-14.5 2.3-18.4 5.8-4 3.4-5.9 8.1-6 14zm59 68.1c0-6-2.4-10.6-7.1-13.6-4.8-3.1-11.4-5.9-20-8.4l-.1 40.5c8.7-.1 15.5-1.7 20.2-4.9 4.6-3 7-7.6 7-13.6z"/></g><path d="M3373.5 2359.2s-11.6 2.3-17.2 2.5-31.3-11.5-39.6-10.4c-8.2 1.1-62 23.9-64.4 25.6s1.1 5.3 1.1 5.3l123.4 1.5-3.3-24.5z" class="AE"/><g fill="#3a3c57"><path d="M3414.938 2401.508l-205.2-1.554.142-18.8 205.2 1.554z"/><path d="M3149.7 2203.7l60 196.3 18-5.5-60-196.2z"/></g><path d="M3584.6 2779.8l7.9 17.1 33.5-12.8c.2-.4-9.2-23.8-9.2-23.8l-32.2 19.5z" fill="#535467"/><path d="M3299.1 2779.4l-9.2 27s36.6 8.1 41.9 7.6c.5 0 6.9-30.5 6.9-30.5l-39.6-4.1z" fill="#6a6b84"/><path d="M3335.8 2806.2s-25.6-6.9-26.3-8.1c-.8-1.1-10.1-7.4-15-6.6-4.8.8-5.3 6.6-10.1 7.8s-42.2 13.1-47.4 16.2c-5.2 3-29.9-5.9-34.7.5s-9.4 23.2 29.5 29.1c38.8 5.8 80.4 23.1 89.7 20.8 9.4-2.5 15.8-49.4 14.3-59.7zm292.8-26.7s-23.7 10.1-24.9 9.7c-1.3-.4-12.2.4-15.4 4-3.2 3.5 0 8.2-3 12s-19.9 26.2-24.8 31.3c-4 4.2-26.2 8.2-33.3 15.6-5.4 5.6.9 28 38.7 17.3 36.7-10.4 82.2-28.5 87.9-35.9 5.6-7.3-17.8-46.9-25.2-54z" fill="#2b2c3c"/><path d="M3604.3 2443.5s-104.2 46.4-126.3 62.2-70.4 45-72.1 52.2c-1.6 7.1-11.2.2 6 35.9 17.1 35.7 98.2 121.5 105.8 130.9 7.9 9.7 64.2 68 64.2 68l42.3-31.9-93.1-137.2c-11.8-17.6-17.1-20.2-10.1-28s34.8-7.6 177.9-66.9c14.3-5.9 54.2-19.6 59.5-38.9 9.5-34.7 1.4-78.7-37.1-98s-117 51.7-117 51.7z" class="AJ"/><path d="M3554.8 2108c.9.8 1.9 2.6 2.9 5 1.5 3.5 3.1 8.3 4.6 13.7 4.7 16.5 9 37.7 9 37.7s59.7-49.7 51.2-52.8c-8.4-3.1-14.7-17.6-14.7-17.6s-59.3 8.4-53 14z" class="AE"/><path d="M3606 2424.7s-107.7 25.3-134.3 33.8-72.4 23.5-84.7 30.5c-6.5 3.7-16.5 9.3-28.5 48.2-13.6 44.1-44.5 168.2-51.5 187.5-4.4 12.1-17.1 59.9-17.1 59.9l55 9.5s65.5-131.9 70.8-167.1c8.9-59.2 31.9-59.5 41.2-64.9s53.9 4.7 212.7-7.9c15.9-1.3 59.3-2.1 70.5-19.2 20.3-30.9 40.8-66.1 9.3-97.2-31.6-31-143.4-13.1-143.4-13.1z" class="AJ"/><path d="M3533.7 1983.4s-18.6 32.2-14.4 40.9c4.2 8.8-19.5 30-15.6 34.5s11.9 9.9 11.8 11.3c-.1 1.3 6.9 43.3 16 44.2s71.7-2.3 76.8-21.9c5.2-19.6 20.4-62.4 24-70.3 3.8-8-32.3-69.5-98.6-38.7z" class="AE"/><path d="M3610.8 1977.2c5.2 3.9 9.4 8 12.8 12.1 4.1 1.9 28.3 13.9 23.3 26.9-6.8 17.5-34.1 64.3-36.4 69.1-.3.6-.3-.6-.1-3.2-1.7-16.5-22-35-22-35l-10.8-4.9c5.7-10.5 3.4-20.4 3.4-20.4-12.3-13.2-53.1-27.3-53.1-27.3 5.7-58.2 55.6-37.6 82.9-17.3z" fill="#e3c8a1"/><path d="M3592.4 2033.4c2.9-4.4 18.1-3.7 15.9 9.3s-20.9 23.4-25 17.6c-4.1-5.7 6-22.2 9.1-26.9z" class="AE"/><path d="M3622.6 2111.6s75.6 44 92.6 120.9l48.4 227.9s-102.2-49.2-157.6-35.7c0 0-34.9-125.3-53.2-154.9s8.9-99.2 8.9-99.2 26.1-41.6 60.9-59z" class="AG"/><path d="M3898.1 2146l-60.9 178.6c-.5 1.4-.7 2.8-.8 4.2l-14.6 234.8-254.6 5.7-74.2 270c-2.2 8.2-.8 16.9 4.1 23.9 3.2 4.6 7.9 8.6 14.3 9.4 16.1 2 343 0 343 0v-13.5c0-6.7-5.6-12.2-12.4-12.2h-305.5c-5 0-9.9-2.2-13-6.1-1.8-2.3-3.1-5.1-2.6-8.4 1.3-8.6 66.6-228.6 66.6-228.6l246.1-4.4c11.2-.2 20.3-8.9 20.8-19.9L3865 2327c.1-1.6.3-3.2.8-4.7l49.8-170.7s5.2-11.9-4.4-13c-9.6-1.3-12.1 4.3-13.1 7.4z" fill="#5e5e5b"/><path d="M3565.8 2574.2s-.2-19.5 26.5-20.9c30.7-1.6 230.2-2.9 230.2-2.9l-1.3 20.7-255.4 3.1zm-123.2-158.9v9.1H3009v-9.1c0-8.5 5.7-15.4 12.7-15.4h408.2c7 0 12.7 6.9 12.7 15.4z" fill="#b79464"/><g fill="#776f66"><path d="M3164.6 2868h-131v-21h110.1c11.5 0 20.9 9.4 20.9 21h0z"/><path d="M3041.8 2424.4h17.3V2868h-17.3zm34.8 0h17.3V2868h-17.3z"/></g><path d="M3557.7 2113c1.5 3.5 3.1 8.3 4.6 13.7 8.9-3.7 26-19.4 26.5-19.9-7.1 2.7-31.1 6.2-31.1 6.2z" class="AI"/><path d="M3258.6 2424.4h-309.8v-9.1c0-8.5 7.3-15.4 16.3-15.4h245l48.5 24.5z" fill="#c3ac8a"/><path d="M3589.4 2171.2s-18 25.5-29.1 44.8l-27.7 48.4c-5.6 9.9-25.4 15.2-34.1 18.9-8.1 3.5-142.2 75.3-144 75.1-1.7-.2 14.5 26.8 14.5 26.8s186.3-53.4 194.7-61.1 33.2-42.5 43.4-56.8c9.7-13.7 24.5-36.1 32.4-45.8 8.8-10.8 27.3-47.8 3.8-66.2-30-23.6-46.7 5-53.9 15.9z" class="AG"/><path d="M3640.5 2220.2s-21.5 58.5-34.5 78.4-27.3 36.5-27.3 36.5l-6.9-20.2 68.7-94.7z" fill="#526889"/><path d="M1616.6 2773.3s-15.9 41-24.6 48.1c-8.7 7.2-28.6 19.9-23.6 26.1s40.1 7.2 48.5 3.4c8.4-3.7 9.8-17.3 21-21.7s2.7-27.5 1.6-35.8c-1.5-10.9-4.4-12.4-4.4-18-.1-5.5-18.5-2.1-18.5-2.1zm152.4-10.6s4 16.5 5.9 20.8c1.9 4.4 14.9 26.8 17.4 29.6s38.3 18.4 33.6 23.3c-4.7 5-10.6 10.9-35.2 5.3s-32.1-24.6-51.4-26.5-13.5-23-6-32.3 15.3-25.8 15.3-25.8l20.4 5.6z" class="AF"/><g class="AH"><path d="M1862.2 2521.6c-3.3 21.9-68.8 142.7-90.1 247.7l-.6 2.3c-12.2-1.4-23.3-4.9-30.1-7.5.5-15.5 14.9-139.7 22.3-162.8 7.8-24.3 31.3-75.6 30.4-92.1s-11.5-27.5-18.7-35.6c-4.1-4.7-29.8-42.1-50.9-74.2h0c-12.1-18.4-22.7-35.1-26.8-42.7-1.2-2.2-1.8-3.6-1.8-4.2 0-5.9-92.9-166.6 72.4-140.3l5.1 32.2c.6 3.3 14.5 36.1 26.4 67.3 6.5 17.1 12.4 33.6 15.2 44.7 3.3 13.1 9.1 32.9 15 52.3 8.2 26.9 16.6 52.7 19.1 57.9 4.2 8.8 16.4 33.1 13.1 55z"/><path d="M1699.8 2348s-12.7 54.7-19.7 76.6-21.1 69.9-21.8 82.5c-.6 12.6-.6 40.1-1.6 51.3-.9 11.2.2 56.2-2.7 79.1-3 22.9-14.8 133.6-15.7 140.6 0 .2-.1.3-.1.5-11.1 1.8-20.4 1.6-27.1.9 0-.1-.1-.2-.1-.4-6.5-30.5-13.5-143.6-14-161.8s4.7-59.7 2.8-72.3-19.1-141.9-13.5-194.2 23.5-138.6 23.5-138.6 185.6-66.8 90 135.8z"/></g><path d="M1783 2261.4c-.5-4.7-5.3-37.3-9.5-58.4l-10-48.7c-.1-.6-.4-1.5-.7-2.8l-8.3-33.1c-.2-.9-.5-1.8-.7-2.7v-4.8c-2.5-9 1.4-13.6 2.2-20.5.2-2.1.2-4.3-.4-7 0-.1 0-.2-.1-.3-2.8-12-4.7-22.5-4.7-28.2 0-19.1-8.9-111.4-8.9-111.4s29.5 13.8 33.7 34.3 5.4 65.9 5.9 75.2 15.1 79.3 16.5 95.2 3.5 29.4 6.8 40.1.5 65.3 1.4 73.7c.7 8.5-22.7 4.1-23.2-.6z" class="AE"/><path d="M1722.8 1860.7s23-67.6-20.9-88.5c-44-21-81.3 9.3-88.4 25.7s-5.2 46.2.8 67 5.1 52.4-7.9 63c-13.1 10.6-24.6 33.6-35.2 53.1s94.1-46 94.1-46l57.5-74.3z" fill="#384454"/><path d="M1683.6 1783.7s45.7 13.5 39.2 77-36.4 60.2-39.2 60.7-38.3 2.8-49.5-74.2 49.5-63.5 49.5-63.5z" class="AE"/><path d="M1705.3 1931.9s44.4 11.4 48.6 18.9 4.7 40.1 7.5 50.9c2.8 10.7 8.9 33.6 4.7 42.9s-8.9 18.2-7.5 24.8c1.4 6.5 5.1 24.7 1.9 38.7-3.3 14-5.1 42.9-.9 63l8.9 41.1c.5 3.3-158.5 0-158.5 0s12.9-44.8 17.6-55.1-4.2-49.9-8.4-59.3c-4.2-9.3-22.4-47.1-22.4-51.3 0 0-19.3-65.8-17.6-68.1s.7-12 19-23.4c14.1-8.7 55.7-19.1 67.4-21 11.5-1.9 39.7-2.1 39.7-2.1z" class="AF"/><path d="M1705.4 1909.7s-2 22.6 2.1 35.7c4 13.1-45.7 12.5-49.8 2.5-4-10 2-23.8-3.5-44.7-5.5-21 51.2 6.5 51.2 6.5z" class="AE"/><path d="M1750.7 1987.8s12.7 16.3 17.5 34.2c4.3 16 .5 32.3-9.6 44.8 0 0-42.4-2.1-57.3-1.8s-62.1 5.5-88.3 19.9c0 0-19.7-36-19.2-41 .6-5 12.7-38.6 31.8-42.3 35.6-6.8 59.2 37.7 70.4 36.4 11.1-1.4 18.9-45.4 54.7-50.2z" class="AF"/><path d="M1671.8 1812s24.9 39.5 51 48.7c0 0 14.3-66.3-44.7-80.2s-49.8 67-45.3 88.6c0-.1 12.3-31.8 39-57.1z" fill="#384454"/><path d="M1661 1912.4s18.1 18.9 41.2 2c0 0-1.9 12-18.6 13.6-16.6 1.5-22.6-15.6-22.6-15.6z" class="AI"/><path d="M1724.5 2399.3h0c-12.1-18.4-22.7-35.1-26.8-42.7 0 0 16.3-41.2 18-57.3 1.8-16.1 8.8 100 8.8 100z" fill="#3a3f75"/><path d="M1649.7 1937.3s20.6 35.5 43.3 41.2c22.8 5.7 22.1-29 15.5-45.8 0 0-.7-1.8-23-2.1-23.4-.4-35.8 6.7-35.8 6.7z" class="AE"/><g fill="#d9b76f"><path d="M1601 2197.3c-11.5-65.8 32.4-128.4 98.2-139.9s128.4 32.4 139.9 98.2-32.4 128.4-98.2 139.9c-65.7 11.5-128.3-32.5-139.9-98.2z"/><path d="M1748 2294l-41.7-237.7c63.1-7.3 121.7 35.8 132.8 99.2 11.2 63.4-29.3 123.9-91.1 138.5zm-147-96.7c-9.8-55.7 20.3-109.2 69.7-131.3l40.5 231c-53.9-3.9-100.4-44-110.2-99.7z"/></g><circle transform="matrix(.026029 -.9997 .9997 .026029 -500.3327 3839.2307)" cx="1720.1" cy="2176.4" r="91.9" fill="#cc9441"/><path d="M1754.1 2164.3c-.5-1.1-1.4-2.3-2.6-3.8-1.2-1.4-2.7-2.9-4.4-4.4s-3.6-2.9-5.8-4.3c-2.2-1.3-4.5-2.5-6.9-3.4l-8 26.6 2.3 1.2c4.3 2.5 8.1 5 11.4 7.5s6 5.1 7.9 7.9c2 2.7 3.2 5.8 3.8 9.1s.2 7-1 11.1c-1.4 4.5-3.3 8.2-5.9 10.9s-5.6 4.7-9.2 6c-3.5 1.3-7.3 1.9-11.5 1.8-4.1-.1-8.4-.7-12.8-2l-4.1 13.5-6.7-2 4.1-13.7c-6-2.3-11.5-5.3-16.5-9s-9.2-8-12.8-13l10.3-10.4c.6 1.3 1.7 2.8 3.1 4.6 1.4 1.7 3.2 3.5 5.3 5.4 2.1 1.8 4.4 3.6 7 5.3s5.4 3.2 8.4 4.5l8-26.6-3-1.8c-4.2-2.6-7.8-5-10.7-7.4-3-2.3-5.3-4.8-7-7.3-1.7-2.6-2.7-5.3-3.1-8.1-.4-2.9-.1-6.1 1-9.7 1.3-4.2 3.1-7.7 5.5-10.5s5.3-5 8.7-6.6 7-2.5 11-2.7c4-.3 8.1.1 12.5 1l3.9-13 6.7 2-3.9 13c5.5 2 10.3 4.7 14.4 8s7.6 6.8 10.4 10.6l-9.8 9.7zm-43.4-9.4c-1.1 3.6-.6 6.7 1.4 9.2 2 2.6 5.3 5.3 10.1 8.2l7.6-25.3c-5.3-1.3-9.5-1.3-12.7.2-3.2 1.4-5.3 4-6.4 7.7zm24.3 53.8c1.1-3.8.5-7.1-1.9-9.9s-6.1-5.8-11-9l-7.7 25.4c5.5 1.6 10 1.8 13.6.7 3.5-1 5.8-3.4 7-7.2z" fill="#dec284"/><path d="M1767 2287.8c50.9-21.4 82.1-75.7 72.2-132.3s-57.8-97.1-112.9-99.9l40.7 232.2zm-55.7 9.2l-40.5-231c8.9-4 18.4-6.9 28.4-8.7 2.4-.4 4.8-.8 7.1-1L1748 2294l-7.1 1.5c-9.9 1.7-19.9 2.2-29.6 1.5z" fill="#f6f6f6"/><g class="AE"><path d="M1590.8 1959.5s-16.6 12.8-29.2 36.1-41.5 64.4-47.1 77.9-24.3 36.4-27 53.9c-2.6 17.2 4.4 23.5 15.6 31s90.7 31.9 90.7 31.9 14.1-22.5 6.9-24.1c-13-2.8-43.9-22-49.2-25.1-5.7-3.4-19.8-15.4-12.8-21s54.6-75.2 64.4-88.7 27.5-46.7 21-63.5c-6.5-16.6-21.7-14.7-33.3-8.4z"/><path d="M1584.6 2162s3.7 2 7.2 1.4c5.9-1 11.6-8.2 18.8-3.7 7.3 4.5-1.5 30-5.7 33.5s-15.9.3-29.8-10.7c-13.8-11.2 9.5-20.5 9.5-20.5z"/><path d="M1607.9 2158.5a272.88 272.88 0 0 0 26.7 5.6c12.2 3.3 25.8 9.3 26.1 11.8.3 2.9-12.7-1.6-25.1-4.1-11.4-2.3-9.5 0-9.5 0s-.5-.7 11.4 4.1c12.8 5.1 25.3 11.6 25.3 14.7 0 1.5-.8 2.1-5.8.9 2.7 1.2 2.7 2.1 2.3 3.2-2.3 5.8-22.3 1-30.3-.9 6.1 1.5 10.4 3.2 6.5 5.9-4.4 3.1-32.4-4.9-42.7-6.9-11.3-2 15.1-34.3 15.1-34.3zm211.7-27.8s18.4-4.3 24.4 4.6c5.9 8.9 6.1 20.3 4.7 25.6-1.5 5.3-6.3 18.9-12.5 16.1-20.1-8.9-16.6-46.3-16.6-46.3z"/><path d="M1837.8 2130.9s-2.6-12.5-7.6-10.3c-5 2.1-.5 10.4-.5 10.4l8.1-.1z"/></g><path d="M1598.4 2194.4c-3.4 13.8-5.4 13.9-6.3 14h-.1c-1.5 0-2.3-2.2-2.8-3.8-1.1-4.1-1.5-8.9-1.5-13.8.1-12.3 2.7-25.1 3.2-27.2 0-.1.1-.5.1-.6l.8.2.8.1c0 .2-3.3 14.9-3.3 28.3 0 4.5.4 9 1.4 12.6.7 2.5 1.3 2.7 1.3 2.7.1 0 .7-.2 1.8-2.6.8-1.8 1.8-4.9 3.1-10 .5-.1 1 0 1.5.1z" fill="#343a4c"/><path d="M2787.6 2802.6s8.3 15.5 13.8 21.7c5.4 6.2 26.3 17.2 26.4 35.5.1 19.8-35.1 14.3-48.9 13.6s-14.8-11.3-20.6-22.6c-5.8-11.2-11.6-9.3-12.7-18.4s5.6-29.8 5.6-29.8h36.4zm-209.6-1.8s-17 18.9-34.2 22.9-29.3 9-29.4 19.9 49.6 18 69.3 7.1c29.4-16.4 32.4-11.4 35.7-19.6s-3.9-30-3.7-32.6c.2-3.3-37.7 2.3-37.7 2.3z" fill="#2b2c3c"/><path d="M2579.9 2791.7l-1.9 9.1c.3.2 38.8 4.8 37.7-2.3-.9-5.8-2.3-12.1-2.3-12.1l-33.5 5.3zm171.7 4.9l-1.3 8.7c.3.2 39 7.1 38.8.1-.2-5.6-3.6-12.1-3.6-12.1l-33.9 3.3z" fill="#7f7e7c"/><path d="M2614.9 2260.3l-21.3 182.5c-8.5 54.4-11.4 99.4-13.8 127.5-3 35.4-3.6 209.7-5.7 220-2.1 10.4 46.4 2.9 46.4 2.9s23.8-227.7 32.7-265.4c8.3-35.1 39-186.4 46.6-176.8s16.9 176.5 22.5 204.2 22.6 244.6 22.6 244.6 38.6 7.7 48.8-1c0 0 4.7-186.9 1.1-238.9-1.4-19.8 23.2-237.4-8.3-324.9-16.5-46.2-171.6 25.3-171.6 25.3z" class="AJ"/><path d="M2740.5 2230.2s-9.3-14.1-19.2-15.9 136.3-72.5 135.9-97.7c-.3-20.5-51.2-58.2-51.2-58.2s0-.1 0 0v-.4c-1.1 4.1-17.7 64.5-18.3 91.5-.6 28 1.7 124.2 1.7 124.2l-37.5 10-119.7 1.1-27.3-11.1s3-30.9 4.1-52.7c.7-13.8 3.4-38.5 2.7-62.6 0 0 .4-25.4-2.1-36.3-.3-48.3-3.2-96.1-3.2-96.1-1.6-21.9-2.7-42.3-3.4-61.4 5.3-2.8 11.6-6.1 16.7-8.5l51.7-24c8.2-3.8 16.3-6.5 16.3-6.5l60.7-5.1c1.4.1 8.5 2.5 17.7 6 19.9 7.6 58.3 22.9 64.4 27.3 9 6.4 67.7 161.7 68.5 172.4 1.7 19.2-158.5 104-158.5 104z" fill="#d5d4df"/><path d="M2608.6 2263.4s82.2 7 154.2 0v23.6s-107.2 10.2-157.8-4.5l3.6-19.1z" fill="#282a38"/><path d="M2601.8 1964.2a1533.39 1533.39 0 0 0 3.2 62.5l4.7 106c1.1 7.4 1.6 15 1 22.7-.8 10.1-1.9 21.1-3.2 32.6v.4l-1 8.2v.1c-7 57.5-18.8 123.5-25 143.5-1.3 4.2 3.2 8 6.4 11l22.5 14.2 12.3-114.3c3-28 12.3-65.4 16.4-101.9h0c5.2-46.3 12.3-91.7 16.2-118.7 10-70.2 23.4-101.6 23.4-101.6-6.4 2-76.9 35.3-76.9 35.3zm238.6 145.2c9.7 21.4-89.5 59.5-87.2 64.7 5.4 12.6 27.3 38.4 27.3 38.4s130.6-64.6 129.2-79.3c-1.1-10.7-62.3-171.9-71.2-178.3-5.2-3.7-43.5-17.3-62.4-24.7-3.4-1.4-15.2-5.8-18.3-6.9-4 4.4-31.5 34.8-41.2 149.6-1.6 19.3 3.5 60.3 7 93.7l10.8 93.3 10 105.5 58.5-26c9.5-4.7 25.8-17.1 22.3-27.1-13.5-37.9-33.8-109.6-33.8-142.9 0 0 9.6-91.7 14.7-109.6-.2.2 23.4 25.7 34.3 49.6z" class="AG"/><path d="M2743.3 1926.4s.4-19.3 7.8-58.3c2-10.4-60.6 27.5-60.6 27.5s.2 3.7.3 8.6c.1 2.6.1 5.6.1 8.5v3.1c-.1 2.8-.2 5.4-.4 7.7s-1.6 6.4-2.1 7.5c-2.6 6 33.8 10.5 54.9-4.6z" fill="#cba385"/><g class="AJ"><path d="M2704.2 1946.6l-10.4 14s6.1 8.1 16.9 2.1l-6.5-16.1z"/><path d="M2696.6 1961.1s-39.4 151.5-31.2 269.5l13.2 23.3 12.4-24.4s3.4-211 14.2-268.8l-8.6.4z"/></g><path d="M2693.1 1933.6l11.1 13s17.8-3.5 23.1-12.8c5.2-9.3-34.2-.2-34.2-.2z" fill="#cba385"/><g fill="#bebdc6"><path d="M2690.6 1922.2s1.3 9.9 13.7 24.4l-13.5 18.1-7.3-37.6 7.1-4.9z"/><path d="M2744.5 1911.2s-22.2 28.3-40.3 35.4l8.4 20.7 38.3-46.3-6.4-9.8z"/></g><g class="AE"><path d="M2373 2120.8s-41.2 4.8-43.5 7.5c-2.3 2.6-1.8 4.9 2.1 4.6l40-3.5s-47.3 14-49.7 15.7c-1.4 1-.6 5.4 1.5 5.4s49.9-11.1 49.9-11.1-44.1 13.1-45.6 15.2c-1.3 1.8.4 5.7 3.8 5s45.1-10.6 45.1-10.6-31.4 11.6-31.6 14.2c-.1 1.6.4 5.4 8.4 2.1s27.8-8.9 27.8-8.9l-8.2-35.6z"/><path d="M2421.8 2122.8s-13.7.7-17.9-6.2c-3.6-5.9-12.3-11.3-15-12.9-3.6-2.2-12.3-12.9-14.9-8.6-2.5 4.3 13.6 18.3 16.5 21.9 2.8 3.6-16.9 2.3-20.5 4.9s-1.6 35.3 11.9 34.7c13.6-.7 27-10.4 29.5-10 2.4.4 9.9-.1 9.9-.1l.5-23.7z"/></g><path d="M2416.1 2155.1s101.1-14.2 123.6-19.7c10.4-2.5 24-16.9 37-33.7 4.3-5.5 8.5-11.4 12.5-17.1 15.9-23 28.4-45.1 28.4-45.1s47.1-55.2 9.3-79.8c0 0-16.2-.4-25.1 4.5-9.1 5-28.6 45.6-31.9 52.8s-39.1 74.1-41.5 75.6-38.1 9.3-54 12.6L2408 2119l8.1 36.1z" class="AG"/><path d="M2707.684 2293.825h-38.4v-29.2h38.4z" fill="#414464"/><path d="M2733.4 2231.9s4.8-.2 6.8-1.3l6.2-3.8c.8-.5 1.6-.9 2.1-1 2.1-.8 7-2.1 11.5-5.5s19.2-17.2 19.2-17.2l-9.5-14.6-4.4-14.4s-34.2 3.4-38.8 6.1c-.4.3-.9.5-1.3.8-3.6 2.7-5.2 6.2-7 7.8-.6.6-6.6 7-6.3 9.6.5 3.6 2.2 5.9 4.5 7 0 0 1.2 7 4.8 10.1 0 0 .9 6.5 6.5 9.1.2.1 1.8 6.6 5.7 7.3z" fill="#cca486"/><path d="M2780.4 2212.6s-19-15.6-29.3-38.4l58.4-32 21.7 44.1-50.8 26.3z" class="AG"/><path d="M2657.5 1799.6s-13.8 25.5-6.9 29.5c5.6 3.3-6.6 28.3-8.2 32.4s10.2 7.1 12.7 9.7 9.9 35 19.7 36c9.7 1 53.5-14.3 65.4-26.7s21.7-68.4 13.8-92c-8-23.7-72.2-33.4-96.5 11.1z" class="AE"/><path d="M2654.8 1805.1s-14-27.5 11.5-48c25.5-20.4 72.5 15.4 77.8 16.8s35.4 3.4 20.2 56.2c-13 45.3-14.9 47.2-14.9 47.2s-9.7-26.3-15.2-30.3c-8.6-6.3-27.5-4.7-27.5-4.7s9-23.9-5.1-27.3c-14-3.2-32.6-15.2-46.8-9.9z" fill="#262a34"/><path d="M2721.7 1828.7c1.2-3.3 5.3-17.4 17.3-9.1 12.1 8.3-7.5 34.8-9.6 35.2-2.2.3-18.2 1.5-7.7-26.1z" class="AE"/><path d="M2690.9 1912.7v3.1c35.8-12 42.7-30.1 42.7-30.1-11.2 7.9-42.8 18.5-42.8 18.5.1 2.6.1 5.6.1 8.5z" class="AI"/></svg>