<svg xmlns="http://www.w3.org/2000/svg" viewBox="0 0 5000 3125"><linearGradient id="A" gradientUnits="userSpaceOnUse" x1="1574.012" y1="2372.019" x2="3303.875" y2="2372.019"><stop offset="0" stop-color="#3a619e"/><stop offset="1" stop-color="#8ac1e7"/></linearGradient><path d="M2882.5 1782.1L2685 2283.4 2439 2056l-246 227.4-197.6-501.2-421.4 133.5s82.5 1043.5 864.9 1046.2c782.4-2.7 864.9-1046.2 864.9-1046.2l-421.3-133.6z" fill="url(#A)"/><linearGradient id="B" gradientUnits="userSpaceOnUse" x1="1911.814" y1="2372.027" x2="2966.073" y2="2372.027"><stop offset="0" stop-color="#3a619e"/><stop offset="1" stop-color="#8ac1e7"/></linearGradient><path d="M2966.1 2253.5l-.4-445-83.2-26.4-197.5 501.3-1.1-1.1-244.9 616.3-244.9-616.3-1.1 1.1-197.6-501.2-83.2 26.4-.4 445h83.5l-83.5 71.7 424.6 630.1c32.7 4.2 66.9 6.5 102.5 6.6 35.6-.1 69.7-2.4 102.5-6.6l424.6-630.1-83.5-71.7h83.6z" fill="url(#B)"/><g fill="#ca4646"><path d="M2438.9 2055.9l-139.7 129.3 63 121.1h153.5l63-121.1z"/><path d="M2515.7 2306.3h-153.5l-63 240.5 139.7 351.8 139.8-351.8z"/></g><path d="M2362.2 2306.3h153.5l37 141.3-67.7-105 5.8 186.4-71.7-189.3-59.7-22.8z" fill="#a23c3c"/><path d="M2842.5 1691.5l-403.6 359-403.5-359-40 90.6 197.5 501.3 246-227.5 246.1 227.5 197.5-501.3z" fill="#e0edf2"/><path d="M2299.2 2185.2l63 121.1-63 240.5-106.3-263.4zm279.5 0l106.3 98.2-106.3 263.4-63-240.5z" fill="#bad6e0"/><path d="M2438.9 207.3c-361 1.6-653.2 294.7-653.2 656.1 0 15.4.7 30.7 1.8 45.8h54c-1.1-15.1-1.9-30.4-1.9-45.8 0-331.7 268.1-600.7 599.4-602.3 331.3 1.6 599.4 270.6 599.4 602.3 0 15.4-.8 30.7-1.9 45.8h54c1-15.2 1.8-30.4 1.8-45.8-.2-361.4-292.3-654.5-653.4-656.1z" fill="#333"/><path d="M2805.2 1480.1h0c-90.7 103-274.6 302.1-291.5 302.1h-149.4c-16.9 0-200.9-199.1-291.5-302.1h0l-29.8 218.1 396.1 352.4 396.1-352.4-30-218.1z" fill="#e7c8a3"/><path d="M2805.2 1480.1c-90.6 103-274.6 302.1-291.5 302.1h-149.4c-16.9 0-200.9-199.1-291.5-302.1h0l-2.7 20 407.1 516.6 357.9-318.5-29.9-218.1z" fill="#c49e7e"/><path d="M2888.3 506.7c-45.3-77.6-219.9-239.5-449.4-232.2-229.5-7.3-404.1 154.6-449.4 232.2-41.9 71.7-49.8 404.6-43.8 438.4 6 33.9 61.8 450.4 77.7 476.3s318.9 360.7 340.8 360.7h149.4c21.9 0 324.8-334.8 340.8-360.7 15.9-25.9 71.7-442.4 77.7-476.3 6.1-33.9-1.9-366.7-43.8-438.4z" fill="#e7c8a3"/><path d="M2971.5 765.2c-11.2-19.2-25.6-190.3-49.6-233.5-11-19.8-27.8-39.6-42.7-55.2 28.9-77.5-13.3-282.3-13.3-282.3-1.6 25.6-16 72-16 72 10.2-79.9-51.2-167.9-51.2-167.9-24 94.4-172.7 155.1-172.7 155.1 30.4-42.1 11.2-102.4 11.2-102.4-36.8 64-183.9 89.6-269.8 114.6-85.8 25.1-267.4 37.6-302.8 75.7-22.3 24.1-26.7 72-26.8 104h0s-59.5 43.1-83.5 86.3-38.4 214.3-49.6 233.5l24-22.4 15.8 188.7c.3 6.2.7 10.9 1.1 13.6l103.6-186.3 16.4-146.5 200.3 26.9v-13.5l172.9 26.4 172.9-26.4v13.5l200.3-26.9 16.4 146.5L2932 945c.6-3.2 1-9.1 1.3-17.2l14-185.1 24.2 22.5z" fill="#604d3e"/><path d="M2883.2 463c20.5-85.3-17.3-268.8-17.3-268.8-1.6 25.6-16 72-16 72 10.2-79.9-51.2-167.9-51.2-167.9s51.5 256.7-130.1 469.4c38.4-97.5 31.6-221.9 31.6-221.9-14.2 144-97.1 246.4-136.1 287.3l47.7-7.3v13.5l200.3-26.9s48.2-69.5 67.1-135.8l4-13.6z" fill="#3c332c"/><path d="M3009.7 826.5l-29.1-3.2c-24.1-2.6-45.8 14.8-48.5 38.9l-49.3 450.2c-2.6 24.1 14.8 45.8 38.9 48.5l29.1 3.2c24.1 2.6 45.8-14.8 48.5-38.9l49.3-450.2c2.6-24.1-14.8-45.8-38.9-48.5z" fill="#2c2c2c"/><path d="M3048.756 874.383l19.186 2.1-49.428 451.62-19.186-2.1z" fill="#262626"/><path d="M3077.8 863.5c-4.7-.5-8.9 2.9-9.4 7.5l-50.6 462.5c-.5 4.7 2.9 8.9 7.5 9.4 68.8 7.5 130.7-42.2 138.3-111l25.2-230.1c7.6-68.9-42.1-130.8-111-138.3z" fill="#2c2c2c"/><path d="M1868.2 826.5l29.1-3.2c24.1-2.6 45.8 14.8 48.5 38.9l49.3 450.2c2.6 24.1-14.8 45.8-38.9 48.5l-29.1 3.2c-24.1 2.6-45.8-14.8-48.5-38.9L1829.3 875c-2.7-24.1 14.8-45.8 38.9-48.5z" fill="#333"/><path d="M1878.528 1325.924l-19.186 2.1-49.428-451.62 19.186-2.1z" fill="#2c2c2c"/><path d="M1800.1 863.5c4.7-.5 8.9 2.9 9.4 7.5l50.6 462.5c.5 4.7-2.9 8.9-7.5 9.4-68.8 7.5-130.7-42.2-138.3-111l-25.2-230.1c-7.6-68.9 42.1-130.8 111-138.3zm421.4 616.7c-33.3-3.3-62.7 4.8-75.8 19-93.6-5.4-171.8-68-200.2-153.4l-23.5-2.1c28.1 96.6 113.6 168.8 217.1 177 4.2 20.2 35.1 38.4 74.3 42.2 43.5 4.3 80.6-10.8 82.8-33.7 2.3-22.8-31.2-44.8-74.7-49z" fill="#333"/></svg>