<svg xmlns="http://www.w3.org/2000/svg" viewBox="0 0 5000 3125"><linearGradient id="A" gradientUnits="userSpaceOnUse" x1="3631.424" y1="1298.288" x2="1367.622" y2="2013.086"><stop offset="0" stop-color="#3a619e"/><stop offset="1" stop-color="#8ac1e7"/></linearGradient><path d="M1369.6 2012.5c259.9 697.2 976.6 1102.6 1600.6 905.6 624.1-197 919.2-922 659.3-1619.1-259.9-697.2-976.6-1102.6-1600.6-905.6s-919.3 921.9-659.3 1619.1z" fill="url(#A)"/><linearGradient id="B" gradientUnits="userSpaceOnUse" x1="1232.501" y1="1899.233" x2="1593.173" y2="1899.233"><stop offset="0" stop-color="#3a619e"/><stop offset="1" stop-color="#8ac1e7"/></linearGradient><path d="M1388.9 2097.7l175.3-55.3c23.1-7.3 34.9-32.3 26.2-55.6l-95.8-256.8c-8.7-23.3-34.7-36.4-57.7-29.1l-175.3 55.3c-23.1 7.3-34.9 32.3-26.2 55.6l95.8 256.8c8.6 23.3 34.6 36.4 57.7 29.1z" fill="url(#B)"/><linearGradient id="C" gradientUnits="userSpaceOnUse" x1="1221.334" y1="1899.233" x2="1604.34" y2="1899.233"><stop offset="0" stop-color="#3a619e"/><stop offset="1" stop-color="#8ac1e7"/></linearGradient><path d="M1375.7 2110.8h0c-24.4 0-46.5-15.4-55-38.4l-95.8-256.8c-5.4-14.4-4.7-29.7 1.9-43.1 6.4-13 17.5-22.6 31.4-27l175.3-55.3c5.3-1.7 10.9-2.5 16.5-2.5 24.4 0 46.5 15.4 55 38.4l95.8 256.8c5.4 14.4 4.7 29.7-1.9 43.1-6.4 13-17.5 22.6-31.4 27l-175.3 55.3c-5.3 1.7-10.9 2.5-16.5 2.5zm74.3-400.9c-3.4 0-6.7.5-9.8 1.5l-175.3 55.3c-8 2.5-14.4 8-18.1 15.5-3.8 7.9-4.2 17-1 25.5l95.8 256.8c5.2 14 19.3 23.9 34.1 23.9h0c3.4 0 6.7-.5 9.8-1.5l175.3-55.3c8-2.5 14.4-8 18.1-15.5 3.8-7.9 4.2-17 1-25.5l-95.8-256.8c-5.2-14.1-19.3-23.9-34.1-23.9z" fill="url(#C)"/><linearGradient id="D" gradientUnits="userSpaceOnUse" x1="2239.267" y1="536.157" x2="2115.504" y2="144.192"><stop offset="0" stop-color="#3a619e"/><stop offset="1" stop-color="#8ac1e7"/></linearGradient><path d="M1986.3 286l76.4 204.9c8.7 23.3 34.7 36.4 57.7 29.1l221.8-70c23.1-7.3 34.9-32.3 26.2-55.6L2292 189.5c-8.7-23.3-34.7-36.4-57.7-29.1l-221.8 70c-23.1 7.3-34.8 32.3-26.2 55.6z" fill="url(#D)"/><linearGradient id="E" gradientUnits="userSpaceOnUse" x1="2346.574" y1="266.59" x2="2008.196" y2="413.759"><stop offset="0" stop-color="#3a619e"/><stop offset="1" stop-color="#8ac1e7"/></linearGradient><path d="M2107.3 533.1h0c-24.4 0-46.5-15.4-55-38.4l-76.4-204.9c-5.4-14.4-4.7-29.7 1.9-43.1 6.4-13 17.5-22.6 31.4-27l221.8-70c5.3-1.7 10.9-2.5 16.5-2.5 24.4 0 46.5 15.4 55 38.4l76.4 204.9c5.4 14.4 4.7 29.7-1.9 43.1-6.4 13-17.5 22.6-31.4 27l-221.8 70c-5.3 1.7-10.9 2.5-16.5 2.5zm140.2-363.6c-3.4 0-6.7.5-9.8 1.5l-221.8 70c-8 2.5-14.4 8-18.1 15.5-3.8 7.9-4.2 17-1 25.5l76.4 204.9c5.2 14 19.3 23.9 34.1 23.9h0c3.4 0 6.7-.5 9.8-1.5l221.8-70c8-2.5 14.4-8 18.1-15.5 3.8-7.9 4.2-17 1-25.5l-76.4-204.9c-5.2-14.1-19.3-23.9-34.1-23.9z" fill="url(#E)"/><linearGradient id="F" gradientUnits="userSpaceOnUse" x1="1517.627" y1="2025.979" x2="3777.565" y2="1179.888"><stop offset="0" stop-color="#3a619e"/><stop offset="1" stop-color="#8ac1e7"/></linearGradient><path d="M1517.6 1959.7c259.9 697.2 976.6 1102.6 1600.6 905.6 624.1-197 919.2-922 659.3-1619.1S2801 143.5 2176.9 340.6s-919.2 921.9-659.3 1619.1z" fill="url(#F)"/><linearGradient id="G" gradientUnits="userSpaceOnUse" x1="3699.615" y1="1270.757" x2="1595.578" y2="1935.109"><stop offset="0" stop-color="#3a619e"/><stop offset="1" stop-color="#8ac1e7"/></linearGradient><path d="M1597.4 1934.5c241.6 648 907.7 1024.8 1487.7 841.6 580-183.1 854.4-856.9 612.8-1504.9S2790.2 246.5 2210.1 429.7s-854.3 856.9-612.7 1504.8z" fill="url(#G)"/><linearGradient id="H" gradientUnits="userSpaceOnUse" x1="3090.567" y1="3005.848" x2="2204.624" y2="200.019"><stop offset="0" stop-color="#3a619e"/><stop offset="1" stop-color="#8ac1e7"/></linearGradient><path d="M2782.4 2833.6c-243.5 0-495.2-86.9-708.8-244.7-220.4-162.8-388.7-387.7-486.6-650.4-126.8-340-116.3-705.5 28.7-1002.8 122.8-251.5 332.7-435 591.1-516.6 98.3-31 201.3-46.8 306-46.8 243.5 0 495.2 86.9 708.8 244.7 220.4 162.8 388.7 387.7 486.6 650.4 126.8 340 116.3 705.5-28.7 1002.8-122.8 251.5-332.7 435-591.1 516.6-98.3 31.1-201.3 46.8-306 46.8zM2512.8 394.5c-102.5 0-203.2 15.4-299.3 45.8-252.5 79.7-457.7 259.1-577.8 505.1-142.4 291.8-152.6 650.9-27.9 985.2 193.3 518.5 676.3 880.7 1174.6 880.7 102.5 0 203.2-15.4 299.3-45.8 252.5-79.7 457.7-259.1 577.8-505.1 142.4-291.8 152.6-650.9 27.9-985.2-193.4-518.5-676.3-880.7-1174.6-880.7z" fill="url(#H)"/><path d="M1723.4 1894.8c212.6 570.2 798.8 901.8 1309.2 740.7 510.4-161.2 751.9-754.1 539.2-1324.3S2773 409.4 2262.6 570.5s-751.8 754-539.2 1324.3z" fill="#fff"/><linearGradient id="I" gradientUnits="userSpaceOnUse" x1="1627.431" y1="1602.934" x2="3667.761" y2="1602.934"><stop offset="0" stop-color="#3a619e"/><stop offset="1" stop-color="#8ac1e7"/></linearGradient><path d="M2766.2 2695.2h0c-216.2 0-439.7-77.1-629.3-217.2-195.4-144.3-344.6-343.7-431.4-576.6-112.5-301.6-103.1-625.9 25.7-889.7C1840.3 788 2027 624.9 2256.9 552.3c87.4-27.6 179-41.6 272.1-41.6 216.2 0 439.7 77.1 629.3 217.2 195.4 144.3 344.6 343.7 431.4 576.6 112.5 301.6 103.1 625.9-25.7 889.7-109.2 223.7-295.9 386.8-525.7 459.4-87.4 27.6-179 41.6-272.1 41.6zM2529 548.8c-89.2 0-176.9 13.4-260.6 39.8-219.8 69.4-398.4 225.6-502.9 439.8-124.2 254.5-133 567.8-24.2 859.7 168.8 452.8 590.3 769 1025 769 89.2 0 176.9-13.4 260.6-39.8 219.8-69.4 398.4-225.6 502.9-439.8 124.2-254.5 133-567.8 24.2-859.7-168.9-452.8-590.3-769-1025-769z" fill="url(#I)"/><linearGradient id="J" gradientUnits="userSpaceOnUse" x1="2728.103" y1="1572.793" x2="2567.09" y2="1633.074"><stop offset="0" stop-color="#3a619e"/><stop offset="1" stop-color="#8ac1e7"/></linearGradient><path d="M2567.1 1628.4c18.5 49.7 69.6 78.6 114 64.5 44.5-14 65.5-65.7 47-115.4s-69.6-78.6-114-64.5c-44.5 14-65.5 65.7-47 115.4z" fill="url(#J)"/><linearGradient id="K" gradientUnits="userSpaceOnUse" x1="2274.269" y1="807.795" x2="2427.977" y2="807.795"><stop offset="0" stop-color="#3a619e"/><stop offset="1" stop-color="#8ac1e7"/></linearGradient><path d="M2399.3 936.9c19.8-6.2 32.2-20.8 27.8-32.6l-80.4-215.5c-4.4-11.8-24-16.3-43.7-10-19.8 6.2-32.2 20.8-27.8 32.6l80.4 215.5c4.3 11.7 23.9 16.2 43.7 10z" fill="url(#K)"/><linearGradient id="L" gradientUnits="userSpaceOnUse" x1="2862.546" y1="2398.072" x2="3025.598" y2="2398.072"><stop offset="0" stop-color="#3a619e"/><stop offset="1" stop-color="#8ac1e7"/></linearGradient><path d="M2992.2 2527.2c22.4-7.1 37-22.4 32.6-34.1l-80.4-215.5c-4.4-11.8-26.1-15.6-48.5-8.5s-37 22.4-32.6 34.1l80.4 215.5c4.4 11.7 26.1 15.5 48.5 8.5z" fill="url(#L)"/><linearGradient id="M" gradientUnits="userSpaceOnUse" x1="2712.604" y1="801.955" x2="2780.842" y2="801.955"><stop offset="0" stop-color="#3a619e"/><stop offset="1" stop-color="#8ac1e7"/></linearGradient><path d="M2741.2 931.8c6.6-2.1 11.6-7.9 12.6-15.9l26.9-217.1c1.5-11.9-6.5-23.9-17.9-26.9-11.3-3-21.7 4.2-23.2 16L2712.7 905c-1.5 11.9 6.5 23.9 17.9 26.9 3.8 1.1 7.4 1 10.6-.1z" fill="url(#M)"/><linearGradient id="N" gradientUnits="userSpaceOnUse" x1="2514.354" y1="2403.912" x2="2582.591" y2="2403.912"><stop offset="0" stop-color="#3a619e"/><stop offset="1" stop-color="#8ac1e7"/></linearGradient><path d="M2543 2533.8c6.6-2.1 11.6-7.9 12.6-15.9l26.9-217.1c1.5-11.9-6.5-23.9-17.9-26.9-11.3-3-21.7 4.2-23.2 16l-26.9 217.1c-1.5 11.9 6.5 23.9 17.9 26.9 3.7 1 7.3.9 10.6-.1z" fill="url(#N)"/><linearGradient id="O" gradientUnits="userSpaceOnUse" x1="3031.631" y1="1010.735" x2="3199.888" y2="1010.735"><stop offset="0" stop-color="#3a619e"/><stop offset="1" stop-color="#8ac1e7"/></linearGradient><path d="M3060.3 1112.3c3.2-1 6.2-3 8.5-5.9l126.9-160.5c6.9-8.8 5.2-22.8-3.9-31.3s-22.1-8.4-29 .4l-126.9 160.5c-6.9 8.8-5.2 22.8 3.9 31.3 6 5.8 13.9 7.6 20.5 5.5z" fill="url(#O)"/><linearGradient id="P" gradientUnits="userSpaceOnUse" x1="2095.303" y1="2195.129" x2="2263.56" y2="2195.129"><stop offset="0" stop-color="#3a619e"/><stop offset="1" stop-color="#8ac1e7"/></linearGradient><path d="M2124 2296.7c3.2-1 6.2-3 8.5-5.9l126.9-160.5c6.9-8.8 5.2-22.8-3.9-31.3s-22-8.4-29 .4l-126.9 160.5c-6.9 8.8-5.2 22.8 3.9 31.3 6 5.8 13.9 7.6 20.5 5.5z" fill="url(#P)"/><linearGradient id="Q" gradientUnits="userSpaceOnUse" x1="3236.042" y1="1378.198" x2="3482.669" y2="1378.198"><stop offset="0" stop-color="#3a619e"/><stop offset="1" stop-color="#8ac1e7"/></linearGradient><path d="M3281.8 1459.3l192.9-60.9c10.5-3.3 10.6-28.7.2-56.7s-27.4-48-38-44.6L3244 1358c-10.5 3.3-10.6 28.7-.2 56.7s27.4 47.9 38 44.6z" fill="url(#Q)"/><linearGradient id="R" gradientUnits="userSpaceOnUse" x1="1813.885" y1="1827.669" x2="2057.791" y2="1827.669"><stop offset="0" stop-color="#3a619e"/><stop offset="1" stop-color="#8ac1e7"/></linearGradient><path d="M1856.3 1903.4l192.9-60.9c10.5-3.3 11.5-26.3 2.2-51.3s-25.4-42.6-36-39.3l-192.9 60.9c-10.5 3.3-11.5 26.3-2.2 51.3 9.3 25.1 25.4 42.7 36 39.3z" fill="url(#R)"/><linearGradient id="S" gradientUnits="userSpaceOnUse" x1="3287.926" y1="1805.875" x2="3536.543" y2="1805.875"><stop offset="0" stop-color="#3a619e"/><stop offset="1" stop-color="#8ac1e7"/></linearGradient><path d="M3523.8 1854.7c6.6-2.1 11.6-7.9 12.6-15.9 1.5-11.9-6.5-23.9-17.9-26.9l-207.2-55c-11.3-3-21.7 4.2-23.2 16-1.5 11.9 6.5 23.9 17.9 26.9l207.2 55c3.7 1.1 7.4.9 10.6-.1z" fill="url(#S)"/><linearGradient id="T" gradientUnits="userSpaceOnUse" x1="1758.649" y1="1399.991" x2="2007.265" y2="1399.991"><stop offset="0" stop-color="#3a619e"/><stop offset="1" stop-color="#8ac1e7"/></linearGradient><path d="M1994.5 1448.8c6.6-2.1 11.6-7.9 12.6-15.9 1.5-11.9-6.5-23.9-17.9-26.9l-207.2-55c-11.3-3-21.7 4.2-23.2 16-1.5 11.9 6.5 23.9 17.9 26.9l207.2 55c3.8 1.1 7.4 1 10.6-.1z" fill="url(#T)"/><linearGradient id="U" gradientUnits="userSpaceOnUse" x1="3156.524" y1="2179.175" x2="3363.94" y2="2179.175"><stop offset="0" stop-color="#3a619e"/><stop offset="1" stop-color="#8ac1e7"/></linearGradient><path d="M3351.2 2278.6c3.2-1 6.2-3 8.5-5.9 6.9-8.8 5.2-22.8-3.9-31.3l-166-156.2c-9.1-8.5-22-8.3-29 .4-6.9 8.8-5.2 22.8 3.9 31.3l166 156.2c6.1 5.8 13.9 7.6 20.5 5.5z" fill="url(#U)"/><linearGradient id="V" gradientUnits="userSpaceOnUse" x1="1931.256" y1="1026.691" x2="2138.671" y2="1026.691"><stop offset="0" stop-color="#3a619e"/><stop offset="1" stop-color="#8ac1e7"/></linearGradient><path d="M2126 1126.1c3.2-1 6.2-3 8.5-5.9 6.9-8.8 5.2-22.8-3.9-31.3l-166-156.2c-9.1-8.5-22-8.3-29 .4-6.9 8.8-5.2 22.8 3.9 31.3l166 156.2c6 5.8 13.9 7.6 20.5 5.5z" fill="url(#V)"/><linearGradient id="W" gradientUnits="userSpaceOnUse" x1="2407.08" y1="1504.105" x2="3109.114" y2="1504.105"><stop offset="0" stop-color="#3a619e"/><stop offset="1" stop-color="#8ac1e7"/></linearGradient><path d="M3096.4 2047.6c3.2-1 6.1-2.9 8.4-5.7 7-8.7 5.4-22.7-3.6-31.3l-438.1-418.4-216-615.7c-4.2-11.8-16.2-19-26.8-15.9-10.5 3-15.9 15.2-11.7 27l220.2 627.6 447.1 427c5.9 5.7 13.8 7.5 20.5 5.4z" fill="url(#W)"/><linearGradient id="X" gradientUnits="userSpaceOnUse" x1="1380.719" y1="1911.48" x2="1242.111" y2="1963.485"><stop offset="0" stop-color="#3a619e"/><stop offset="1" stop-color="#8ac1e7"/></linearGradient><path d="M1380.7 1911.5c37.4 99.8 36.7 192.3-1.5 206.6-38.3 14.4-99.6-54.9-137.1-154.6-37.4-99.8-36.7-192.3 1.5-206.6 38.3-14.4 99.7 54.8 137.1 154.6z" fill="url(#X)"/><path d="M3576.9 2060.3c-86 266.1-280.3 478.7-553.3 564.9-499.1 157.6-1072.2-166.7-1280.1-724.2-91.9-246.5-97-497.4-31-714.2l1864.4 873.5z" opacity=".6" fill="#c6c6c6"/></svg>